<mxfile host="app.diagrams.net" modified="2022-12-20T15:12:33.669Z" agent="5.0 (Windows NT 10.0; Win64; x64) AppleWebKit/537.36 (KHTML, like Gecko) Chrome/108.0.0.0 Safari/537.36" version="20.7.4" etag="bPoKJzsdK11UJVojJ7pz" type="github">
  <diagram id="Q2KpWUQ7nG4tV_wtQ1vZ" name="第 1 页">
    <mxGraphModel dx="1432" dy="764" grid="1" gridSize="10" guides="1" tooltips="1" connect="1" arrows="1" fold="1" page="1" pageScale="1" pageWidth="827" pageHeight="1169" math="0" shadow="0">
      <root>
        <mxCell id="0" />
        <mxCell id="1" parent="0" />
        <mxCell id="D9TXTje34iZs9WZrQYAT-1" value="" style="shape=image;html=1;verticalLabelPosition=bottom;verticalAlign=top;imageAspect=0;image=img/clipart/Gear_128x128.png;rounded=1;labelBackgroundColor=none;fillColor=#F08E81;strokeColor=#FFFFFF;fontColor=#1A1A1A;" vertex="1" parent="1">
          <mxGeometry x="290" y="390" width="50" height="60" as="geometry" />
        </mxCell>
        <mxCell id="D9TXTje34iZs9WZrQYAT-2" value="" style="rounded=0;whiteSpace=wrap;html=1;fillColor=#cce5ff;strokeColor=#36393d;" vertex="1" parent="1">
          <mxGeometry x="330" y="240" width="120" height="60" as="geometry" />
        </mxCell>
      </root>
    </mxGraphModel>
  </diagram>
</mxfile>
